# xmcd CD database file
#
# Track frame offsets:
#	150
#	72635
#	126472
#	147376
#	168690
#	205405
#
# Disc length: 3219 seconds
#
# Revision: 7
# Processed by: cddbd v1.5.2PL0 Copyright (c) Steve Scherf et al.
# Submitted via: CDex 1.51
#
DISCID=680c9106
DTITLE=Ten Years After - Live At The Fillmore East (Disc-2)
DYEAR=1970
DGENRE=Rock
TTITLE0=Help Me
TTITLE1=I'm Going Home
TTITLE2=Sweet Little 16
TTITLE3=Roll Over Beethoven
TTITLE4=I Woke Up This Morning
TTITLE5=Spoonful
EXTD=YEAR: 1970
EXTT0=
EXTT1=
EXTT2=
EXTT3=
EXTT4=
EXTT5=
PLAYORDER=
